<?xml version="1.0" encoding="utf-8"?>
<!-- Generator: Adobe Illustrator 22.0.1, SVG Export Plug-In . SVG Version: 6.00 Build 0)  -->
<svg version="1.1"
	 id="svg2" inkscape:version="0.92.2 2405546, 2018-03-11" sodipodi:docname="trace_togglecolorlength.svg" xmlns:cc="http://creativecommons.org/ns#" xmlns:dc="http://purl.org/dc/elements/1.1/" xmlns:inkscape="http://www.inkscape.org/namespaces/inkscape" xmlns:rdf="http://www.w3.org/1999/02/22-rdf-syntax-ns#" xmlns:sodipodi="http://sodipodi.sourceforge.net/DTD/sodipodi-0.dtd" xmlns:svg="http://www.w3.org/2000/svg"
	 xmlns="http://www.w3.org/2000/svg" xmlns:xlink="http://www.w3.org/1999/xlink" x="0px" y="0px" viewBox="0 0 24 24"
	 style="enable-background:new 0 0 24 24;" xml:space="preserve">
<style type="text/css">
	.st0{fill:#603609;}
	.st1{fill:#192CDD;}
	.st2{fill:none;stroke:#0E00E9;stroke-miterlimit:10;}
</style>
<defs>
	
	
		<inkscape:perspective  id="perspective10" inkscape:persp3d-origin="372.04724 : 350.78739 : 1" inkscape:vp_x="0 : 526.18109 : 1" inkscape:vp_y="0 : 1000 : 0" inkscape:vp_z="744.09448 : 526.18109 : 1" sodipodi:type="inkscape:persp3d">
		</inkscape:perspective>
	
		<inkscape:perspective  id="perspective2884" inkscape:persp3d-origin="0.5 : 0.33333333 : 1" inkscape:vp_x="0 : 0.5 : 1" inkscape:vp_y="0 : 1000 : 0" inkscape:vp_z="1 : 0.5 : 1" sodipodi:type="inkscape:persp3d">
		</inkscape:perspective>
	
		<inkscape:perspective  id="perspective3733" inkscape:persp3d-origin="0.5 : 0.33333333 : 1" inkscape:vp_x="0 : 0.5 : 1" inkscape:vp_y="0 : 1000 : 0" inkscape:vp_z="1 : 0.5 : 1" sodipodi:type="inkscape:persp3d">
		</inkscape:perspective>
</defs>
<sodipodi:namedview  bordercolor="#666666" borderopacity="1.0" id="base" inkscape:current-layer="g3766" inkscape:cx="30.009472" inkscape:cy="8.1093765" inkscape:document-units="px" inkscape:guide-bbox="true" inkscape:pageopacity="0.0" inkscape:pageshadow="2" inkscape:window-height="1389" inkscape:window-maximized="0" inkscape:window-width="2556" inkscape:window-x="0" inkscape:window-y="49" inkscape:zoom="32" pagecolor="#ffffff" showgrid="false" showguides="true">
	<sodipodi:guide  id="guide4640" inkscape:locked="false" orientation="0,1" position="20.3125,19.46875"></sodipodi:guide>
	<sodipodi:guide  id="guide4704" inkscape:locked="false" orientation="0,1" position="10.21875,2.625"></sodipodi:guide>
	<sodipodi:guide  id="guide4723" inkscape:locked="false" orientation="1,0" position="11,13.5"></sodipodi:guide>
</sodipodi:namedview>
<path class="st0" d="M14.1,16.7c0.4,0.6,0.7,1.2,1.2,1.8c0.5,0.5,1.2,0.8,2,0.7c0.1-0.5,0.1-1,0.2-1.6c0.1-0.4,0.1-0.7,0-1.1
	c-0.1-0.5-0.5-1-0.8-1.4c-1-1.2-2.1-2.5-3.1-3.7c-0.7-0.8-1.3-1.7-2.4-2.1c-0.6-0.2-1.7-0.2-1.8,0.6c-0.1,0.6,0.9,1.3,1.2,1.8
	C11.9,13.3,13,14.9,14.1,16.7z"/>
<path class="st1" d="M6.4,7.6C6.5,8.4,6.7,9.4,7.3,10c0.5,0.4,1.1,0.5,1.8,0.4c0.6-0.1,1.1-0.5,1.7-0.9c0.4-0.4,0.7-0.8,0.6-1.3
	c-0.1-0.4-0.4-0.7-0.7-1C10,6.6,9.3,6.2,8.6,5.9C8,5.7,7.4,5.6,6.8,5.4C6.5,5.2,6.1,4.9,6,4.5C6.3,5.4,6.3,6.7,6.4,7.6z"/>
<path class="st2" d="M14,20.3c-1.9,0.4-3.9,0.6-5.9,0.7c-0.9,0-2-0.1-2.5-0.9c-0.5-0.8-0.1-1.9,0.2-2.8c0.4-0.9,0.7-2,0.1-2.7
	c-0.4-0.4-1-0.6-1.4-1c-0.8-0.7-0.9-1.8-0.9-2.8c0-1.1-0.1-2.3,0.2-3.3s0.9-2.1,1.9-2.6"/>
</svg>
